<svg xmlns="http://www.w3.org/2000/svg" viewBox="0 0 196 225" width="196" height="225"><path d="M98 2.4l94.9 54.8v109.6L98 221.6 3.1 166.8V57.2zm52 150.1a1.7 1.7 0 0 0 1.8-1.8v-21.8h23.8a1.8 1.8 0 1 0 0-3.6h-13.5v-11.7a1.7 1.7 0 0 0-1.8-1.8h-7a57 57 0 0 0-54.8-43.7c-.3-.2-.5-.2-.7 0a57.2 57.2 0 0 0-55.1 43.7h-7a1.7 1.7 0 0 0-1.8 1.8v11.7H20.4a1.8 1.8 0 1 0 0 3.6h23.8v21.8a1.7 1.7 0 0 0 1.8 1.8zm8.5-37.1v9.9h-121v-9.9zm-92.7-3.6H46.5C52.1 90 71.4 73.3 94.4 71.9zm30.4 17.1v20H47.8v-20zm0-17.1H70.3l25.9-36.3zm53.3 0H99.8V71.7a53.6 53.6 0 0 1 49.7 40.1zm-41.6 17.1v20h-8.1v-20zm40.3 0v20h-36.7v-20z"/></svg>