<svg xmlns="http://www.w3.org/2000/svg" viewBox="0 0 196 225" width="196" height="225"><path fill="#fff" d="M98 2.4l94.9 54.8v109.6L98 221.6 3.1 166.8V57.2L98 2.4z"/><path fill="none" d="M44.4 156.5l-4.2-6a2 2 0 0 1 .2-2.1l14.9-17.7H48a1.7 1.7 0 0 1-1.8-1.8V116a1.7 1.7 0 0 1 1.8-1.8h10.4a49.4 49.4 0 0 1-2-13.7 42.6 42.6 0 0 1 85.2 0 45.9 45.9 0 0 1-2 13.7H150a1.7 1.7 0 0 1 1.8 1.8v12.9a1.7 1.7 0 0 1-1.8 1.8h-9.2l14.8 17.7a1.8 1.8 0 0 1 0 2.1l-4.1 6a2 2 0 0 1-2.4.5l-8.6-4.5H55.3l-8.6 4.5a1.9 1.9 0 0 1-2.3-.5zm27.3-25.8H59.8L44 149.4l2.5 3.6 30.4-16zm-21.9-12.9v9.3h98.4v-9.3zm12.4-3.6h73.6a45.2 45.2 0 0 0 2.2-13.7 39 39 0 0 0-78 0c0 4.7.4 9.5 2.2 13.7zm17.3 25.7l-17.1 9h24.4zm-3.1-9.2l15.1 18.2h13l15.1-18.2zm40.1 9.2l-7.3 9h24.4zm19.7-9.2h-11.9l-5.4 6.3 30.6 16 2.5-3.4z"/></svg>