<svg xmlns="http://www.w3.org/2000/svg" viewBox="0 0 196 225" width="196" height="225"><path d="M98 2.4l94.9 54.8v109.6L98 221.6 3.1 166.8V57.2zM46.7 157l8.6-4.5h85.2l8.6 4.5a2 2 0 0 0 2.4-.5l4.1-6a1.8 1.8 0 0 0 0-2.1l-14.8-17.7h9.2a1.7 1.7 0 0 0 1.8-1.8V116a1.7 1.7 0 0 0-1.8-1.8h-10.4a45.9 45.9 0 0 0 2-13.7 42.6 42.6 0 0 0-85.2 0 49.4 49.4 0 0 0 2 13.7H48a1.7 1.7 0 0 0-1.8 1.8v12.9a1.7 1.7 0 0 0 1.8 1.8h7.3l-14.9 17.7a2 2 0 0 0-.2 2.1l4.2 6a1.9 1.9 0 0 0 2.3.5zm30.2-20l-30.4 16-2.5-3.6 15.8-18.7h11.9zm71.3-19.2v9.3H49.8v-9.3zM60 100.5a39 39 0 0 1 78 0 45.2 45.2 0 0 1-2.2 13.7H62.2c-1.8-4.2-2.2-9-2.2-13.7zm26.8 48.4H62.4l17.1-9zm32.8-18.2l-15.1 18.2h-13l-15.1-18.2zm14 18.2h-24.4l7.3-9zm18.4.7l-2.5 3.4-30.6-16 5.4-6.3h11.9z"/></svg>