<svg xmlns="http://www.w3.org/2000/svg" viewBox="0 0 196 225" width="196" height="225"><path d="M98 2.4l94.9 54.8v109.6L98 221.6 3.1 166.8V57.2zm55.1 150.1a1.8 1.8 0 1 0 0-3.6h-9v-11.3h9a1.7 1.7 0 0 0 1.8-1.8v-35.5a1.7 1.7 0 0 0-1.8-1.8h-11.9c-.9-25.6-20-39.6-43.2-39.6s-42.3 14-43.2 39.6H42.9a1.7 1.7 0 0 0-1.8 1.8v35.5a1.7 1.7 0 0 0 1.8 1.8h9v11.3h-9a1.8 1.8 0 1 0 0 3.6zm-1.8-50.4V134H44.7v-31.9zM67 137.6v11.3H55.5v-11.3zm31-75.1c21.1 0 38.7 12.8 39.6 36H58.4c.9-23.2 18.5-36 39.6-36zm-9.4 75.1v11.3h-18v-11.3zm15.2 0v11.3H92.2v-11.3zm39-14.1a1.9 1.9 0 0 0-1.8-1.8H97.1a1.8 1.8 0 0 0 0 3.6H141a1.9 1.9 0 0 0 1.8-1.8zm-17.4 14.1v11.3h-18v-11.3zm15.1 0v11.3H129v-11.3z"/></svg>